# xmcd
#
# Track frame offsets:
#	150
#	15867
#	30197
#	43317
#	56742
#	70010
#	82997
#	98282
#	112270
#	126137
#	138072
#	150557
#	164022
#	175490
#	185417
#	199815
#
# Disc length: 2877 seconds
#
# Revision: 0
# Processed by: cddbd v1.5.2PL0 Copyright (c) Steve Scherf et al.
# Submitted via: dBpowerAMP V4.0
#
DISCID=ca0b3b10
DTITLE=Chrystian and Ralf - Pérolas
DYEAR=2000
DGENRE=Sertanejo
TTITLE0=Esta noite eu queria que o mundo acabasse
TTITLE1=Chora peito
TTITLE2=Quebradas da noite
TTITLE3=Flecha certeira
TTITLE4=Desencontro
TTITLE5=Pagode em Brasília
TTITLE6=Cheiro de shampoo
TTITLE7=Noite de tortura
TTITLE8=Camisa manchada
TTITLE9=Pranto de saudade
TTITLE10=Casa da esquina
TTITLE11=Berrante de Madalena
TTITLE12=Gemidos abafados
TTITLE13=Vestido colado
TTITLE14=Amargurado
TTITLE15=A deserdada
EXTD=
EXTT0=
EXTT1=
EXTT2=
EXTT3=
EXTT4=
EXTT5=
EXTT6=
EXTT7=
EXTT8=
EXTT9=
EXTT10=
EXTT11=
EXTT12=
EXTT13=
EXTT14=
EXTT15=
PLAYORDER=
